<?xml version="1.0" standalone="no"?><!DOCTYPE svg PUBLIC "-//W3C//DTD SVG 1.1//EN" "http://www.w3.org/Graphics/SVG/1.1/DTD/svg11.dtd"><svg t="1686293093486" class="icon" viewBox="0 0 1024 1024" version="1.1" xmlns="http://www.w3.org/2000/svg" p-id="1234" width="16" height="16" xmlns:xlink="http://www.w3.org/1999/xlink"><path d="M854.857 992H169.143C93.403 992 32 930.596 32 854.857V169.143C32 93.403 93.404 32 169.143 32h685.714C930.596 32 992 93.404 992 169.143v685.714C992 930.596 930.596 992 854.857 992z" fill="#FFEBEB" p-id="1235"></path><path d="M776 800H248c-35.35 0-64-28.65-64-64V336c0-35.35 28.65-64 64-64h528c35.35 0 64 28.65 64 64v400c0 35.35-28.65 64-64 64z" fill="#FFFFFF" p-id="1236"></path><path d="M768 824H256c-66.17 0-120-53.83-120-120V320c0-66.17 53.83-120 120-120h512c66.17 0 120 53.83 120 120v384c0 66.17-53.83 120-120 120zM256 248c-39.7 0-72 32.3-72 72v384c0 39.7 32.3 72 72 72h512c39.7 0 72-32.3 72-72V320c0-39.7-32.3-72-72-72H256z" fill="#1F4CA4" p-id="1237"></path><path d="M864 404H160c-11.05 0-20-8.95-20-20s8.95-20 20-20h704c11.05 0 20 8.95 20 20s-8.95 20-20 20zM408.05 568h-128c-13.25 0-24-10.75-24-24s10.75-24 24-24h128c13.25 0 24 10.75 24 24s-10.74 24-24 24z" fill="#1F4CA4" p-id="1238"></path></svg>