<?xml version="1.0" standalone="no"?><!DOCTYPE svg PUBLIC "-//W3C//DTD SVG 1.1//EN" "http://www.w3.org/Graphics/SVG/1.1/DTD/svg11.dtd"><svg t="1686293073715" class="icon" viewBox="0 0 1024 1024" version="1.1" xmlns="http://www.w3.org/2000/svg" p-id="977" width="16" height="16" xmlns:xlink="http://www.w3.org/1999/xlink"><path d="M854.857 992H169.143C93.403 992 32 930.596 32 854.857V169.143C32 93.403 93.404 32 169.143 32h685.714C930.596 32 992 93.404 992 169.143v685.714C992 930.596 930.596 992 854.857 992z" fill="#FFEBEB" p-id="978"></path><path d="M729.85 864h-387.7C285.73 864 240 818.27 240 761.85V632c0-163.48 132.52-296 296-296s296 132.52 296 296v129.85C832 818.27 786.27 864 729.85 864z" fill="#FFFFFF" p-id="979"></path><path d="M704 888H320c-83.81 0-152-68.19-152-152V608c0-46.43 9.1-91.48 27.04-133.91 17.33-40.97 42.13-77.75 73.71-109.34 31.58-31.58 68.37-56.38 109.34-73.71C420.52 273.1 465.57 264 512 264c46.43 0 91.48 9.1 133.91 27.04 40.97 17.33 77.75 42.13 109.34 73.71 31.58 31.58 56.38 68.37 73.71 109.34C846.9 516.52 856 561.57 856 608v128c0 83.81-68.19 152-152 152zM512 312c-79.06 0-153.4 30.79-209.3 86.7C246.8 454.61 216 528.94 216 608v128c0 57.35 46.65 104 104 104h384c57.35 0 104-46.65 104-104V608c0-79.06-30.79-153.4-86.7-209.3C665.39 342.8 591.06 312 512 312zM704 184H320c-13.25 0-24-10.75-24-24s10.75-24 24-24h384c13.25 0 24 10.75 24 24s-10.75 24-24 24z" fill="#1F4CA4" p-id="980"></path><path d="M640 564H384c-11.05 0-20-8.95-20-20s8.95-20 20-20h256c11.05 0 20 8.95 20 20s-8.95 20-20 20zM640 660H384c-11.05 0-20-8.95-20-20s8.95-20 20-20h256c11.05 0 20 8.95 20 20s-8.95 20-20 20z" fill="#FFB9B3" p-id="981"></path><path d="M512 788c-11.05 0-20-8.95-20-20V544c0-11.05 8.95-20 20-20s20 8.95 20 20v224c0 11.05-8.95 20-20 20z" fill="#FFB9B3" p-id="982"></path><path d="M512 563.999c-5.12 0-10.24-1.95-14.14-5.86l-96-96c-7.81-7.81-7.81-20.47 0-28.28 7.81-7.81 20.47-7.81 28.28 0l96 96c7.81 7.81 7.81 20.47 0 28.29-3.9 3.9-9.02 5.85-14.14 5.85z" fill="#FFB9B3" p-id="983"></path><path d="M512 564c-5.12 0-10.24-1.95-14.14-5.86-7.81-7.81-7.81-20.47 0-28.29l96-96c7.81-7.81 20.47-7.81 28.29 0 7.81 7.81 7.81 20.47 0 28.28l-96 96A19.912 19.912 0 0 1 512 564z" fill="#FFB9B3" p-id="984"></path></svg>